<svg xmlns="http://www.w3.org/2000/svg" width="134" height="44" viewBox="0 0 134 44" role="img" aria-label="LinkedIn"><title>LinkedIn</title><style>@keyframes popin{from{opacity:0;transform:scale(.86)}}
@keyframes fadein{from{opacity:0}}
@keyframes slidedown{from{opacity:0;transform:translateY(-42px)}}
@keyframes blink{50%{opacity:0}}
@keyframes pulse{50%{opacity:.25}}
@keyframes draw{from{stroke-dashoffset:1}}
@keyframes eq{from{transform:scaleY(.18)}}
@keyframes swing{from{transform:scaleX(.45)}}
.pop{animation:popin .65s cubic-bezier(.05,.9,.1,1.05) both;transform-box:fill-box;transform-origin:center}
.fade{animation:fadein .35s ease-out both}
.slide{animation:slidedown .7s cubic-bezier(.05,.9,.1,1.05) both}
.blink{animation:blink 1.1s steps(1) infinite}
.pulse{animation:pulse 1.8s ease-in-out infinite}
.draw{stroke-dasharray:1;animation:draw 1.8s cubic-bezier(.45,0,.2,1) both}
.eq{transform-box:fill-box;transform-origin:50% 100%;animation:eq .8s ease-in-out infinite alternate}
.swing{transform-box:fill-box;transform-origin:0 50%;animation:swing 2.6s ease-in-out infinite alternate}
@media (prefers-reduced-motion:reduce){*{animation:none!important}}</style><defs><linearGradient id="edge" x1="0" y1="0" x2="1" y2="1"><stop offset="0" stop-color="#89b4fa"/><stop offset="1" stop-color="#45475a"/></linearGradient><path id="grf0e1" d="M134 60H10V460H134ZM0 588Q0 618 21 639Q42 660 72 660Q102 660 123 639Q144 618 144 588Q144 558 124 536Q102 514 72 514Q42 514 21 535Q0 556 0 588ZM600 60H476V254Q476 274 474 284Q474 296 470 312Q466 328 460 337Q454 346 441 353Q428 360 410 362Q366 362 352 334Q336 306 336 258V60H212V460H332V406H334Q348 432 379 451Q410 470 450 470Q496 470 526 456Q556 442 572 414Q588 388 594 356Q600 324 600 280Z"/><path id="gb6c" d="M389 0Q307 0 257.5 49Q208 98 208 178V617H27V730H333V181Q333 150 350.5 131.5Q368 113 398 113H559V0Z"/><path id="gb69" d="M76 0V113H264V437H96V550H389V113H558V0ZM318 642Q280 642 258 661.5Q236 681 236 714Q236 747 258 766.5Q280 786 318 786Q356 786 378 766.5Q400 747 400 714Q400 681 378 661.5Q356 642 318 642Z"/><path id="gb6e" d="M77 0V550H199V447Q209 499 248 529.5Q287 560 347 560Q428 560 476.5 506Q525 452 525 361V0H400V346Q400 397 373.5 424.5Q347 452 302 452Q255 452 228.5 424Q202 396 202 344V0Z"/><path id="gb6b" d="M82 0V730H207V334H295L426 550H565L402 284L571 0H429L295 228H207V0Z"/><path id="gb65" d="M301 -10Q231 -10 179 17Q127 44 98.5 93.5Q70 143 70 210V340Q70 407 98.5 456.5Q127 506 179 533Q231 560 301 560Q370 560 421.5 533Q473 506 501.5 457.5Q530 409 530 344V244H190V206Q190 150 219 121.5Q248 93 301 93Q340 93 367.5 106.5Q395 120 400 146H524Q511 75 450 32.5Q389 -10 301 -10ZM190 344V325L410 326V345Q410 402 382 433Q354 464 301 464Q246 464 218 432.5Q190 401 190 344Z"/><path id="gb64" d="M250 -10Q170 -10 120.5 47Q71 104 71 200V349Q71 446 120 503Q169 560 250 560Q307 560 346.5 531Q386 502 402 450L398 576V730H523V0H401V100Q386 48 347 19Q308 -10 250 -10ZM297 98Q345 98 371.5 127Q398 156 398 209V341Q398 394 371.5 423Q345 452 297 452Q249 452 222.5 426Q196 400 196 346V204Q196 150 222.5 124Q249 98 297 98Z"/></defs><rect x="1" y="1" width="132" height="42" rx="21.0" fill="#11111b" stroke="url(#edge)" stroke-width="1.5"/><circle cx="24" cy="22.0" r="13" fill="#89b4fa" fill-opacity=".16"/><g transform="translate(19.8 27.0) scale(0.014 -0.014)"><g fill="#89b4fa"><use href="#grf0e1" x="0"/></g></g><g transform="translate(46.0 27.0) scale(0.014 -0.014)"><g fill="#cdd6f4"><use href="#gb6c" x="0"/><use href="#gb69" x="600"/><use href="#gb6e" x="1200"/><use href="#gb6b" x="1800"/><use href="#gb65" x="2400"/><use href="#gb64" x="3000"/><use href="#gb69" x="3600"/><use href="#gb6e" x="4200"/></g></g></svg>