<svg xmlns="http://www.w3.org/2000/svg" width="1000" height="130" viewBox="0 0 1000 130" role="img" aria-label="End of transmission"><title>End of transmission</title><style>@keyframes blink{50%{opacity:0}}
@keyframes twinkle{50%{opacity:.15}}
@keyframes flicker{0%,40%,44%,47%,77%,82%,100%{opacity:1}41%{opacity:.2}43%{opacity:.7}45%{opacity:.3}79%{opacity:.1}80%{opacity:.8}}
.blink{animation:blink 1.1s steps(1) infinite}
.twinkle{animation:twinkle 5s ease-in-out infinite}
.flicker{animation:flicker 5.5s linear infinite}
@media (prefers-reduced-motion:reduce){*{animation:none!important}}

@keyframes rainA{to{transform:translate(26.4px,150px)}}
@keyframes rainB{to{transform:translate(17.6px,100px)}}
@keyframes fly{to{transform:translateX(-1240px)}}
@keyframes flare{0%,100%{transform:scale(1,1);opacity:.95}18%{transform:scale(.8,1.3);opacity:1}37%{transform:scale(1.1,.85);opacity:.8}
 61%{transform:scale(.9,1.2);opacity:1}83%{transform:scale(1.05,.9);opacity:.85}}
@keyframes gc{0%,87%,100%{transform:translate(0,0)}88%{transform:translate(-5px,1px)}90%{transform:translate(4px,-1px)}92%{transform:translate(-3px,0)}94%{transform:translate(1px,1px)}}
@keyframes gm{0%,87%,100%{transform:translate(0,0)}88%{transform:translate(5px,-1px)}90%{transform:translate(-4px,1px)}92%{transform:translate(3px,0)}94%{transform:translate(-1px,-1px)}}
@keyframes slice{0%,88%,93%,100%{opacity:0;transform:translateX(0)}89%{opacity:1;transform:translateX(16px)}91%{opacity:1;transform:translateX(-11px)}}
.rainA{animation:rainA .55s linear infinite}
.rainB{animation:rainB .8s linear infinite}
.fly{animation:fly 28s linear infinite}
.flare{transform-box:fill-box;transform-origin:50% 100%;animation:flare 2.6s ease-in-out infinite}
.gc{animation:gc 6s steps(1) infinite}
.gm{animation:gm 6s steps(1) infinite}
.slice{animation:slice 6s steps(1) infinite}</style><defs><clipPath id="f"><path d="M20 4H996L996 4V110L980 126H4L4 126V20Z"/></clipPath><linearGradient id="dusk" x1="0" y1="0" x2="0" y2="1"><stop offset="0" stop-color="#07060e"/><stop offset="1" stop-color="#2a0f30"/></linearGradient><pattern id="rainA" width="150" height="150" patternUnits="userSpaceOnUse" patternTransform="skewX(10)"><path d="M75.2 82.4v18.6M75.2 -67.6v18.6M94.7 16.4v13.4M94.7 -133.6v13.4M31.6 74.6v16.9M31.6 -75.4v16.9M24.1 104.6v13.5M24.1 -45.4v13.5M58.3 116.7v19.7M58.3 -33.3v19.7M18.3 12.8v11.9M18.3 -137.2v11.9" stroke="#c4f3ff" stroke-opacity="0.22" stroke-width="1" stroke-linecap="round"/></pattern><path id="gds-2f" d="M386 700H503L117 0H0Z"/><path id="gds-45" d="M70 700H558V601H186V401H529V303H186V99H558V0H70Z"/><path id="gds-4e" d="M70 700H176L506 191H508V700H619V0H513L183 508H181V0H70Z"/><path id="gds-44" d="M70 700H503L620 583V117L503 0H70ZM447 100 504 156V544L447 600H186V100Z"/><path id="gds-4f" d="M60 113V587L173 700H519L632 587V113L519 0H173ZM459 100 516 156V544L459 600H233L176 544V156L233 100Z"/><path id="gds-46" d="M70 700H548V601H186V387H500V288H186V0H70Z"/><path id="gds-54" d="M230 601H20V700H556V601H346V0H230Z"/><path id="gds-52" d="M602 226V0H486V198L414 277H186V0H70V700H496L598 597V382L525 309ZM186 373H444L484 413V562L444 602H186Z"/><path id="gds-41" d="M264 700H374L627 0H509L449 166H188L128 0H10ZM422 263 319 559H317L216 263Z"/><path id="gds-53" d="M55 103V191H169V138L207 100H425L465 140V269L426 308H160L57 410V597L160 700H468L571 597V508H457V562L418 600H210L171 562V446L210 408H476L579 305V105L474 0H158Z"/><path id="gds-4d" d="M70 700H181L395 218H397L611 700H723V0H612V468H610L434 89H358L183 468H181V0H70Z"/><path id="gds-49" d="M75 700H191V0H75Z"/></defs><path d="M20 4H996L996 4V110L980 126H4L4 126V20Z" fill="url(#dusk)"/><g clip-path="url(#f)"><path d="M-10.0 112.7h30.6V130h-30.6ZM23.5 103.0h27.5V130h-27.5ZM54.1 105.6h19.4V130h-19.4ZM61.5 84.7h1.4V106.6h-1.4ZM76.1 95.8h33.2V130h-33.2ZM96.5 84.0h1.4V96.8h-1.4ZM110.1 102.7h33.1V130h-33.1ZM127.6 81.2h1.4V103.7h-1.4ZM144.8 108.8h42.4V130h-42.4ZM177.6 92.4h1.4V109.8h-1.4ZM189.7 94.7h23.9V130h-23.9ZM206.4 70.3h1.4V95.7h-1.4ZM216.9 99.9h40.6V130h-40.6ZM257.9 90.8h21.3V130h-21.3ZM269.2 75.7h1.4V91.8h-1.4ZM283.2 104.1h23.3V130h-23.3ZM284.0 92.5h8.4v12.7h-8.4ZM300.2 76.9h1.4V93.5h-1.4ZM311.0 88.3h18.2V130h-18.2ZM330.3 104.0h32.1V130h-32.1ZM365.5 88.7h24.7V130h-24.7ZM390.3 86.1h32.3V130h-32.3ZM405.3 61.4h1.4V87.1h-1.4ZM424.4 100.9h37.1V130h-37.1ZM438.1 90.2h1.4V101.9h-1.4ZM465.9 89.0h27.1V130h-27.1ZM495.5 107.8h30.6V130h-30.6ZM526.6 111.4h21.2V130h-21.2ZM548.4 112.0h20.9V130h-20.9ZM572.9 100.5h33.2V130h-33.2ZM607.3 91.7h31.6V130h-31.6ZM640.0 108.3h31.1V130h-31.1ZM672.1 96.0h38.4V130h-38.4ZM715.2 110.7h19.7V130h-19.7ZM734.9 89.7h40.7V130h-40.7ZM743.2 77.0h23.5v13.7h-23.5ZM750.7 65.3h1.4V78.0h-1.4ZM779.6 101.0h20.7V130h-20.7ZM791.2 87.5h1.4V102.0h-1.4ZM804.6 91.7h35.9V130h-35.9ZM824.5 75.1h1.4V92.7h-1.4ZM843.0 103.6h37.0V130h-37.0ZM884.6 107.5h19.1V130h-19.1ZM904.1 88.8h42.2V130h-42.2ZM946.6 112.8h40.4V130h-40.4ZM955.8 96.9h17.2v17.0h-17.2ZM988.1 103.2h40.1V130h-40.1Z" fill="#050409"/><circle class="blink" style="animation-duration:1.7s" cx="62.2" cy="84.7" r="1.4" fill="#ff2a6d"/><circle class="blink" style="animation-duration:1.9s" cx="97.2" cy="84.0" r="1.4" fill="#ff2a6d"/><circle class="blink" style="animation-duration:2.5s" cx="128.3" cy="81.2" r="1.4" fill="#ff2a6d"/><circle class="blink" style="animation-duration:2.6s" cx="178.3" cy="92.4" r="1.4" fill="#ff2a6d"/><circle class="blink" style="animation-duration:2.2s" cx="207.1" cy="70.3" r="1.4" fill="#ff2a6d"/><circle class="blink" style="animation-duration:1.8s" cx="269.9" cy="75.7" r="1.4" fill="#ff2a6d"/><circle class="blink" style="animation-duration:2.0s" cx="300.9" cy="76.9" r="1.4" fill="#ff2a6d"/><circle class="blink" style="animation-duration:1.8s" cx="406.0" cy="61.4" r="1.4" fill="#ff2a6d"/><circle class="blink" style="animation-duration:2.5s" cx="438.8" cy="90.2" r="1.4" fill="#ff2a6d"/><circle class="blink" style="animation-duration:2.9s" cx="751.4" cy="65.3" r="1.4" fill="#ff2a6d"/><circle class="blink" style="animation-duration:2.1s" cx="791.9" cy="87.5" r="1.4" fill="#ff2a6d"/><circle class="blink" style="animation-duration:2.3s" cx="825.2" cy="75.1" r="1.4" fill="#ff2a6d"/><rect class="twinkle" style="animation-duration:4.8s;animation-delay:-2.1s" x="98" y="101" width="2.4" height="3.2" fill="#ffb867" opacity="0.5"/><rect class="twinkle" style="animation-duration:5.2s;animation-delay:-6.6s" x="132" y="108" width="2.4" height="3.2" fill="#ffb867" opacity="0.5"/><rect class="twinkle" style="animation-duration:5.5s;animation-delay:-6.1s" x="617" y="111" width="2.4" height="3.2" fill="#6ff0ff" opacity="0.45"/><rect class="twinkle" style="animation-duration:7.9s;animation-delay:-3.6s" x="682" y="109" width="2.4" height="3.2" fill="#ffb867" opacity="0.5"/><rect class="twinkle" style="animation-duration:5.7s;animation-delay:-6.3s" x="820" y="111" width="2.4" height="3.2" fill="#ffb867" opacity="0.5"/><path d="M27 109h2.4v3.2h-2.4zM98 122h2.4v3.2h-2.4zM193 100h2.4v3.2h-2.4zM205 107h2.4v3.2h-2.4zM440 113h2.4v3.2h-2.4zM552 118h2.4v3.2h-2.4zM676 109h2.4v3.2h-2.4zM676 123h2.4v3.2h-2.4zM864 116h2.4v3.2h-2.4zM870 116h2.4v3.2h-2.4zM846 123h2.4v3.2h-2.4zM894 113h2.4v3.2h-2.4zM908 115h2.4v3.2h-2.4zM956 118h2.4v3.2h-2.4z" fill="#6ff0ff" opacity="0.45"/><path d="M114 122h2.4v3.2h-2.4zM220 105h2.4v3.2h-2.4zM320 108h2.4v3.2h-2.4zM369 115h2.4v3.2h-2.4zM394 120h2.4v3.2h-2.4zM434 113h2.4v3.2h-2.4zM475 95h2.4v3.2h-2.4zM481 109h2.4v3.2h-2.4zM594 120h2.4v3.2h-2.4zM783 120h2.4v3.2h-2.4zM832 111h2.4v3.2h-2.4zM858 109h2.4v3.2h-2.4zM1004 109h2.4v3.2h-2.4z" fill="#ffb867" opacity="0.5"/><rect class="rainA" x="-120" y="-160" width="1240" height="300" fill="url(#rainA)"/><g transform="translate(333.2 56.0) scale(0.014 -0.014)"><g fill="#9598b3"><use href="#gds-2f" x="0"/><use href="#gds-2f" x="1003"/><use href="#gds-45" x="2769"/><use href="#gds-4e" x="3867"/><use href="#gds-44" x="5056"/><use href="#gds-4f" x="6999"/><use href="#gds-46" x="8191"/><use href="#gds-54" x="10022"/><use href="#gds-52" x="11098"/><use href="#gds-41" x="12265"/><use href="#gds-4e" x="13402"/><use href="#gds-53" x="14591"/><use href="#gds-4d" x="15720"/><use href="#gds-49" x="17013"/><use href="#gds-53" x="17779"/><use href="#gds-53" x="18908"/><use href="#gds-49" x="20037"/><use href="#gds-4f" x="20803"/><use href="#gds-4e" x="21995"/></g></g><rect class="blink" x="658.8" y="43" width="9" height="15" fill="#00e5ff"/></g><path d="M20 4H996L996 4V110L980 126H4L4 126V20Z" fill="none" stroke="#1d1e30" stroke-width="1.2"/></svg>